<?xml version="1.0" encoding="UTF-8"?>
<!-- Created with Inkscape (http://www.inkscape.org/) -->
<svg width="96" height="96" version="1.1" viewBox="0 0 25.4 25.4" xmlns="http://www.w3.org/2000/svg">
 <g stroke-linecap="round" stroke-linejoin="round">
  <path transform="matrix(.13688 0 0 .13059 3.7812 -3.2603)" d="m141.83 178.39-66.361 38.314a20.622 20.622 2.522e-7 0 1-20.622 0l-66.361-38.314a20.622 20.622 60 0 1-10.311-17.859l1e-6 -76.627a20.622 20.622 120 0 1 10.311-17.859l66.361-38.314a20.622 20.622 2.522e-7 0 1 20.622 0l66.361 38.314a20.622 20.622 60 0 1 10.311 17.859v76.627a20.622 20.622 120 0 1-10.311 17.859z" fill="#fff" stroke-width="1.9821"/>
  <path transform="matrix(.1308 0 0 .12479 4.1776 -2.5509)" d="m141.83 178.39-66.361 38.314a20.622 20.622 2.522e-7 0 1-20.622 0l-66.361-38.314a20.622 20.622 60 0 1-10.311-17.859l1e-6 -76.627a20.622 20.622 120 0 1 10.311-17.859l66.361-38.314a20.622 20.622 2.522e-7 0 1 20.622 0l66.361 38.314a20.622 20.622 60 0 1 10.311 17.859v76.627a20.622 20.622 120 0 1-10.311 17.859z" fill="#666" stroke-width="2.0743"/>
  <path transform="matrix(.10646 0 0 .10157 5.7631 .28646)" d="m141.83 178.39-66.361 38.314a20.622 20.622 2.522e-7 0 1-20.622 0l-66.361-38.314a20.622 20.622 60 0 1-10.311-17.859l1e-6 -76.627a20.622 20.622 120 0 1 10.311-17.859l66.361-38.314a20.622 20.622 2.522e-7 0 1 20.622 0l66.361 38.314a20.622 20.622 60 0 1 10.311 17.859v76.627a20.622 20.622 120 0 1-10.311 17.859z" fill="#fff" stroke-width="2.5484"/>
  <path d="m12.7 5.0095c-0.30008 2.16e-5 -0.59487 0.075412-0.85473 0.21859l-5.5004 3.0298c-0.40731 0.24722-0.7946 0.64081-0.7674 1.1012 0.023756 0.4021 0.40385 0.70278 0.7674 0.90382l5.5004 3.0298c0.5289 0.29136 1.1806 0.29136 1.7095 0l5.5004-3.0298c0.36354-0.20104 0.74364-0.50172 0.7674-0.90382 0.027201-0.46042-0.36008-0.854-0.7674-1.1012l-5.5004-3.0298c-0.25986-0.14318-0.55465-0.21857-0.85473-0.21859z" fill="#666" stroke-width=".265"/>
 </g>
 <g transform="translate(15.229 7.0293)" stroke-width=".26458px" aria-label="#!">
  <path d="m-4.9577 9.2208-0.0038-0.70393-0.50717-0.27952 0.14905-0.79482-1.189-0.65646-0.14869 0.79617-0.90946-0.50124 0.14841-0.79721-1.1945-0.65951-0.14805 0.79857-0.65767-0.36247 0.00611 0.70865 0.52959 0.29147-0.21733 1.1678-0.63894-0.35075 0.00626 0.70696 0.51096 0.2801-0.16502 0.86616 1.1927 0.65254 0.16541-0.86469 0.90862 0.49809-0.1657 0.86357 1.1872 0.64953 0.16608-0.86211 0.65137 0.35707-0.00396-0.70225-0.52491-0.28815 0.2188-1.1623zm-2.0403 0.16146-0.90883-0.49891 0.21787-1.1658 0.90924 0.50042z"/>
  <path d="m-2.9875 8.6165-1.5177-0.83811 0.1954 3.0329 1.1538 0.63346zm-0.74224 3.119c-0.45074-0.24716-0.81026-0.17129-0.80859 0.15575 0.0017 0.33356 0.36369 0.8042 0.81403 1.0505 0.45889 0.25101 0.8174 0.17498 0.8161-0.15776-0.00128-0.32624-0.36225-0.79668-0.82154-1.0485z"/>
 </g>
 <g transform="translate(28.067 8.541)" stroke-width=".26458px" aria-label="rsc">
  <path d="m-13.356 6.2642c-0.31481 0.17623-0.5807 0.69471-0.70062 1.3832l-0.07729-0.82171-0.70467 0.39432 0.02738 4.4346 0.81212-0.44828-0.0134-2.2321c0.08875-0.71248 0.22553-1.1834 0.56077-1.3703 0.08774-0.048925 0.16016-0.064087 0.24815-0.079518l0.1217-1.3548c-0.09326 0.010136-0.17085 0.036745-0.27414 0.094566z"/>
  <path d="m-11.866 5.4128c-0.69461 0.38886-1.1206 1.2247-1.1162 1.9877 4e-3 0.68732 0.27543 0.99049 0.82042 0.94023 0.49909-0.049629 0.58265-0.00332 0.58431 0.299 0.0015 0.2687-0.14818 0.50311-0.3971 0.64085-0.26942 0.14909-0.52408 0.11343-0.73248-0.031785l-0.39373 0.94056c0.27089 0.24511 0.67578 0.29053 1.1522 0.02765 0.68495-0.37792 1.2228-1.2227 1.2179-2.1477-0.0043-0.79914-0.31329-0.99855-0.86037-0.94708-0.4942 0.039296-0.56733-0.021018-0.56865-0.25609-0.0011-0.20151 0.10699-0.39664 0.33005-0.52115 0.23881-0.13331 0.4681-0.13478 0.68246-0.035025l0.29781-0.91744c-0.25685-0.19407-0.61679-0.20361-1.0167 0.020258z"/>
  <path d="m-9.1388 3.8863c-0.83167 0.46559-1.3535 1.7547-1.346 3.1777 0.0074 1.4137 0.53368 2.0512 1.3855 1.5813 0.38227-0.21092 0.68013-0.57838 0.93569-1.0497l-0.36608-0.62725c-0.19825 0.31296-0.33398 0.48964-0.53298 0.5998-0.32963 0.18246-0.55072 6.279e-4 -0.55578-0.99398-0.0051-1.0035 0.19689-1.5053 0.55287-1.704 0.18863-0.10527 0.35166-0.094587 0.53108 0.025636l0.35322-0.9941c-0.26961-0.2139-0.56961-0.2325-0.95748-0.015365z"/>
 </g>
</svg>
